<mxfile host="app.diagrams.net" agent="Mozilla/5.0 (Windows NT 10.0; Win64; x64) AppleWebKit/537.36 (KHTML, like Gecko) Chrome/129.0.0.0 Safari/537.36" version="24.7.17">
  <diagram name="Страница — 1" id="SY5ZQ-yBVwcujoQGqjHC">
    <mxGraphModel dx="3566" dy="1040" grid="1" gridSize="10" guides="1" tooltips="1" connect="1" arrows="1" fold="1" page="1" pageScale="1" pageWidth="827" pageHeight="1169" math="0" shadow="0">
      <root>
        <mxCell id="0" />
        <mxCell id="1" parent="0" />
        <mxCell id="W62d9GdkccvWjs98OXgP-19" style="edgeStyle=orthogonalEdgeStyle;rounded=0;orthogonalLoop=1;jettySize=auto;html=1;exitX=0.5;exitY=1;exitDx=0;exitDy=0;entryX=0.5;entryY=0;entryDx=0;entryDy=0;" edge="1" parent="1" source="4Y4PqBms7ApKC9dW5V91-1" target="W62d9GdkccvWjs98OXgP-18">
          <mxGeometry relative="1" as="geometry" />
        </mxCell>
        <mxCell id="4Y4PqBms7ApKC9dW5V91-1" value="начало" style="ellipse;whiteSpace=wrap;html=1;" parent="1" vertex="1">
          <mxGeometry x="230" y="20" width="120" height="80" as="geometry" />
        </mxCell>
        <mxCell id="4Y4PqBms7ApKC9dW5V91-12" style="edgeStyle=orthogonalEdgeStyle;rounded=0;orthogonalLoop=1;jettySize=auto;html=1;exitX=0.5;exitY=1;exitDx=0;exitDy=0;entryX=0.5;entryY=0;entryDx=0;entryDy=0;" parent="1" source="4Y4PqBms7ApKC9dW5V91-9" target="4Y4PqBms7ApKC9dW5V91-11" edge="1">
          <mxGeometry relative="1" as="geometry" />
        </mxCell>
        <mxCell id="4Y4PqBms7ApKC9dW5V91-9" value="for col in range(array.shape[1]):" style="rhombus;whiteSpace=wrap;html=1;" parent="1" vertex="1">
          <mxGeometry x="140" y="430" width="300" height="280" as="geometry" />
        </mxCell>
        <mxCell id="W62d9GdkccvWjs98OXgP-42" style="edgeStyle=orthogonalEdgeStyle;rounded=0;orthogonalLoop=1;jettySize=auto;html=1;exitX=0.5;exitY=1;exitDx=0;exitDy=0;entryX=0.5;entryY=0;entryDx=0;entryDy=0;" edge="1" parent="1" source="4Y4PqBms7ApKC9dW5V91-11" target="W62d9GdkccvWjs98OXgP-41">
          <mxGeometry relative="1" as="geometry" />
        </mxCell>
        <mxCell id="4Y4PqBms7ApKC9dW5V91-11" value="column_data = array1[:, col]" style="rounded=0;whiteSpace=wrap;html=1;" parent="1" vertex="1">
          <mxGeometry x="120" y="770" width="340" height="160" as="geometry" />
        </mxCell>
        <mxCell id="W62d9GdkccvWjs98OXgP-20" style="edgeStyle=orthogonalEdgeStyle;rounded=0;orthogonalLoop=1;jettySize=auto;html=1;entryX=0.5;entryY=0;entryDx=0;entryDy=0;" edge="1" parent="1" source="W62d9GdkccvWjs98OXgP-18" target="4Y4PqBms7ApKC9dW5V91-9">
          <mxGeometry relative="1" as="geometry" />
        </mxCell>
        <mxCell id="W62d9GdkccvWjs98OXgP-18" value="&lt;div&gt;ВВОД&lt;br&gt;arr1 = [[5, 14, 21], [10, 35, 49], [15, 28, 42]]&lt;/div&gt;&lt;div&gt;arr2 = [[1, 24, 26], [12, 15, 69], [15, 38, 12]]&lt;/div&gt;" style="shape=parallelogram;perimeter=parallelogramPerimeter;whiteSpace=wrap;html=1;fixedSize=1;" vertex="1" parent="1">
          <mxGeometry x="125" y="220" width="330" height="130" as="geometry" />
        </mxCell>
        <mxCell id="W62d9GdkccvWjs98OXgP-45" style="edgeStyle=orthogonalEdgeStyle;rounded=0;orthogonalLoop=1;jettySize=auto;html=1;exitX=0;exitY=0.5;exitDx=0;exitDy=0;entryX=0.5;entryY=0;entryDx=0;entryDy=0;" edge="1" parent="1" source="W62d9GdkccvWjs98OXgP-41" target="W62d9GdkccvWjs98OXgP-44">
          <mxGeometry relative="1" as="geometry" />
        </mxCell>
        <mxCell id="W62d9GdkccvWjs98OXgP-41" value="&lt;font face=&quot;Helvetica&quot;&gt;&lt;span style=&quot;box-sizing: border-box; font-size: 14px; text-align: start; white-space-collapse: preserve;&quot; class=&quot;hljs-keyword&quot;&gt;if&lt;/span&gt;&lt;span style=&quot;font-size: 14px; text-align: start; white-space-collapse: preserve;&quot;&gt; &lt;/span&gt;&lt;span style=&quot;box-sizing: border-box; font-size: 14px; text-align: start; white-space-collapse: preserve;&quot; class=&quot;hljs-built_in&quot;&gt;all&lt;/span&gt;&lt;span style=&quot;font-size: 14px; text-align: start; white-space-collapse: preserve;&quot;&gt;(value % &lt;/span&gt;&lt;span style=&quot;box-sizing: border-box; font-size: 14px; text-align: start; white-space-collapse: preserve;&quot; class=&quot;hljs-number&quot;&gt;5&lt;/span&gt;&lt;span style=&quot;font-size: 14px; text-align: start; white-space-collapse: preserve;&quot;&gt; == &lt;/span&gt;&lt;span style=&quot;box-sizing: border-box; font-size: 14px; text-align: start; white-space-collapse: preserve;&quot; class=&quot;hljs-number&quot;&gt;0&lt;/span&gt;&lt;span style=&quot;font-size: 14px; text-align: start; white-space-collapse: preserve;&quot;&gt; &lt;/span&gt;&lt;span style=&quot;box-sizing: border-box; font-size: 14px; text-align: start; white-space-collapse: preserve;&quot; class=&quot;hljs-keyword&quot;&gt;or&lt;/span&gt;&lt;span style=&quot;font-size: 14px; text-align: start; white-space-collapse: preserve;&quot;&gt; value % &lt;/span&gt;&lt;span style=&quot;box-sizing: border-box; font-size: 14px; text-align: start; white-space-collapse: preserve;&quot; class=&quot;hljs-number&quot;&gt;7&lt;/span&gt;&lt;span style=&quot;font-size: 14px; text-align: start; white-space-collapse: preserve;&quot;&gt; == &lt;/span&gt;&lt;span style=&quot;box-sizing: border-box; font-size: 14px; text-align: start; white-space-collapse: preserve;&quot; class=&quot;hljs-number&quot;&gt;0&lt;/span&gt;&lt;span style=&quot;font-size: 14px; text-align: start; white-space-collapse: preserve;&quot;&gt; &lt;/span&gt;&lt;span style=&quot;box-sizing: border-box; font-size: 14px; text-align: start; white-space-collapse: preserve;&quot; class=&quot;hljs-keyword&quot;&gt;for&lt;/span&gt;&lt;span style=&quot;font-size: 14px; text-align: start; white-space-collapse: preserve;&quot;&gt; value &lt;/span&gt;&lt;span style=&quot;box-sizing: border-box; font-size: 14px; text-align: start; white-space-collapse: preserve;&quot; class=&quot;hljs-keyword&quot;&gt;in&lt;/span&gt;&lt;span style=&quot;font-size: 14px; text-align: start; white-space-collapse: preserve;&quot;&gt; column_data):&lt;/span&gt;&lt;/font&gt;" style="rhombus;whiteSpace=wrap;html=1;" vertex="1" parent="1">
          <mxGeometry x="30" y="1050" width="520" height="150" as="geometry" />
        </mxCell>
        <mxCell id="W62d9GdkccvWjs98OXgP-48" style="edgeStyle=orthogonalEdgeStyle;rounded=0;orthogonalLoop=1;jettySize=auto;html=1;exitX=0;exitY=0.5;exitDx=0;exitDy=0;" edge="1" parent="1" source="W62d9GdkccvWjs98OXgP-44">
          <mxGeometry relative="1" as="geometry">
            <mxPoint x="-260" y="398" as="targetPoint" />
          </mxGeometry>
        </mxCell>
        <mxCell id="W62d9GdkccvWjs98OXgP-65" style="edgeStyle=orthogonalEdgeStyle;rounded=0;orthogonalLoop=1;jettySize=auto;html=1;exitX=0.5;exitY=1;exitDx=0;exitDy=0;entryX=0.5;entryY=0;entryDx=0;entryDy=0;" edge="1" parent="1" source="W62d9GdkccvWjs98OXgP-44" target="W62d9GdkccvWjs98OXgP-64">
          <mxGeometry relative="1" as="geometry" />
        </mxCell>
        <mxCell id="W62d9GdkccvWjs98OXgP-44" value="&lt;span style=&quot;font-size: 14px; text-align: start; white-space-collapse: preserve;&quot;&gt;&lt;font style=&quot;&quot; face=&quot;Helvetica&quot;&gt;valid_columns1.append(col)&lt;/font&gt;&lt;/span&gt;" style="rounded=0;whiteSpace=wrap;html=1;" vertex="1" parent="1">
          <mxGeometry x="-240" y="1280" width="340" height="160" as="geometry" />
        </mxCell>
        <mxCell id="W62d9GdkccvWjs98OXgP-46" value="ДА" style="text;html=1;align=center;verticalAlign=middle;resizable=0;points=[];autosize=1;strokeColor=none;fillColor=none;" vertex="1" parent="1">
          <mxGeometry x="-50" y="1098" width="40" height="30" as="geometry" />
        </mxCell>
        <mxCell id="W62d9GdkccvWjs98OXgP-49" value="" style="endArrow=classic;html=1;rounded=0;" edge="1" parent="1">
          <mxGeometry width="50" height="50" relative="1" as="geometry">
            <mxPoint x="-260" y="400" as="sourcePoint" />
            <mxPoint x="290" y="400" as="targetPoint" />
          </mxGeometry>
        </mxCell>
        <mxCell id="W62d9GdkccvWjs98OXgP-76" style="edgeStyle=orthogonalEdgeStyle;rounded=0;orthogonalLoop=1;jettySize=auto;html=1;exitX=0.5;exitY=1;exitDx=0;exitDy=0;" edge="1" parent="1" source="W62d9GdkccvWjs98OXgP-59">
          <mxGeometry relative="1" as="geometry">
            <mxPoint x="-80" y="2039.9999999999995" as="targetPoint" />
            <Array as="points">
              <mxPoint x="268" y="2040" />
            </Array>
          </mxGeometry>
        </mxCell>
        <mxCell id="W62d9GdkccvWjs98OXgP-59" value="&lt;div&gt;&lt;font face=&quot;Helvetica&quot;&gt;&lt;span style=&quot;box-sizing: border-box; color: var(--color-type); font-size: 14px; text-align: start; white-space-collapse: preserve;&quot; class=&quot;hljs-built_in&quot;&gt;ВЫВОД&lt;/span&gt;&lt;/font&gt;&lt;/div&gt;&lt;font face=&quot;Helvetica&quot;&gt;&lt;span style=&quot;box-sizing: border-box; color: var(--color-type); font-size: 14px; text-align: start; white-space-collapse: preserve;&quot; class=&quot;hljs-built_in&quot;&gt;print&lt;/span&gt;&lt;span style=&quot;font-size: 14px; text-align: start; white-space-collapse: preserve;&quot;&gt;(&lt;/span&gt;&lt;span style=&quot;box-sizing: border-box; color: var(--color-string); font-size: 14px; text-align: start; white-space-collapse: preserve;&quot; class=&quot;hljs-string&quot;&gt;&quot;В первом массиве нет столбцов с элементами, кратными 5 и 7.&quot;&lt;/span&gt;&lt;span style=&quot;font-size: 14px; text-align: start; white-space-collapse: preserve;&quot;&gt;)&lt;br&gt;&lt;/span&gt;&lt;/font&gt;&lt;div&gt;&lt;span style=&quot;font-family: &amp;quot;Cascadia Mono&amp;quot;, &amp;quot;Roboto Mono&amp;quot;, &amp;quot;Droid Sans Mono&amp;quot;, &amp;quot;SF Mono&amp;quot;, Menlo, &amp;quot;Ubuntu Mono&amp;quot;, Consolas, monospace; font-size: 14px; text-align: start; white-space-collapse: preserve; background-color: rgba(112, 117, 121, 0.08);&quot;&gt;&lt;br&gt;&lt;/span&gt;&lt;/div&gt;" style="shape=parallelogram;perimeter=parallelogramPerimeter;whiteSpace=wrap;html=1;fixedSize=1;" vertex="1" parent="1">
          <mxGeometry x="70" y="1800" width="396" height="160" as="geometry" />
        </mxCell>
        <mxCell id="W62d9GdkccvWjs98OXgP-75" style="edgeStyle=orthogonalEdgeStyle;rounded=0;orthogonalLoop=1;jettySize=auto;html=1;exitX=0.5;exitY=1;exitDx=0;exitDy=0;entryX=0.5;entryY=0;entryDx=0;entryDy=0;" edge="1" parent="1" source="W62d9GdkccvWjs98OXgP-62" target="W62d9GdkccvWjs98OXgP-72">
          <mxGeometry relative="1" as="geometry">
            <mxPoint x="-90" y="2099.9999999999995" as="targetPoint" />
          </mxGeometry>
        </mxCell>
        <mxCell id="W62d9GdkccvWjs98OXgP-62" value="&lt;div&gt;&lt;font face=&quot;Helvetica&quot;&gt;&lt;span style=&quot;box-sizing: border-box; color: var(--color-type); font-size: 14px; text-align: start; white-space-collapse: preserve;&quot; class=&quot;hljs-built_in&quot;&gt;ВЫВОД&lt;br/&gt;print&lt;/span&gt;&lt;span style=&quot;font-size: 14px; text-align: start; white-space-collapse: preserve;&quot;&gt;(&lt;/span&gt;&lt;span style=&quot;box-sizing: border-box; color: var(--color-string); font-size: 14px; text-align: start; white-space-collapse: preserve;&quot; class=&quot;hljs-string&quot;&gt;&quot;В первом массиве номера столбцов с элементами, кратными 5 и 7:&quot;&lt;/span&gt;&lt;span style=&quot;font-size: 14px; text-align: start; white-space-collapse: preserve;&quot;&gt;, valid_columns1)&lt;/span&gt;&lt;/font&gt;&lt;span style=&quot;font-family: &amp;quot;Cascadia Mono&amp;quot;, &amp;quot;Roboto Mono&amp;quot;, &amp;quot;Droid Sans Mono&amp;quot;, &amp;quot;SF Mono&amp;quot;, Menlo, &amp;quot;Ubuntu Mono&amp;quot;, Consolas, monospace; font-size: 14px; text-align: start; white-space-collapse: preserve; background-color: rgba(112, 117, 121, 0.08);&quot;&gt;&lt;br&gt;&lt;/span&gt;&lt;/div&gt;" style="shape=parallelogram;perimeter=parallelogramPerimeter;whiteSpace=wrap;html=1;fixedSize=1;" vertex="1" parent="1">
          <mxGeometry x="-600" y="1800" width="396" height="160" as="geometry" />
        </mxCell>
        <mxCell id="W62d9GdkccvWjs98OXgP-67" style="edgeStyle=orthogonalEdgeStyle;rounded=0;orthogonalLoop=1;jettySize=auto;html=1;exitX=0;exitY=0.5;exitDx=0;exitDy=0;entryX=0.5;entryY=0;entryDx=0;entryDy=0;" edge="1" parent="1" source="W62d9GdkccvWjs98OXgP-64" target="W62d9GdkccvWjs98OXgP-62">
          <mxGeometry relative="1" as="geometry" />
        </mxCell>
        <mxCell id="W62d9GdkccvWjs98OXgP-68" style="edgeStyle=orthogonalEdgeStyle;rounded=0;orthogonalLoop=1;jettySize=auto;html=1;exitX=1;exitY=0.5;exitDx=0;exitDy=0;entryX=0.5;entryY=0;entryDx=0;entryDy=0;" edge="1" parent="1" source="W62d9GdkccvWjs98OXgP-64" target="W62d9GdkccvWjs98OXgP-59">
          <mxGeometry relative="1" as="geometry" />
        </mxCell>
        <mxCell id="W62d9GdkccvWjs98OXgP-64" value="&lt;font face=&quot;Helvetica&quot;&gt;&lt;span style=&quot;box-sizing: border-box; color: var(--color-keyword); font-size: 14px; text-align: start; white-space-collapse: preserve;&quot; class=&quot;hljs-keyword&quot;&gt;if&lt;/span&gt;&lt;span style=&quot;font-size: 14px; text-align: start; white-space-collapse: preserve;&quot;&gt; valid_columns1:&lt;/span&gt;&lt;/font&gt;" style="rhombus;whiteSpace=wrap;html=1;" vertex="1" parent="1">
          <mxGeometry x="-330" y="1520" width="520" height="150" as="geometry" />
        </mxCell>
        <mxCell id="W62d9GdkccvWjs98OXgP-69" value="ДА" style="text;html=1;align=center;verticalAlign=middle;resizable=0;points=[];autosize=1;strokeColor=none;fillColor=none;" vertex="1" parent="1">
          <mxGeometry x="-390" y="1570" width="40" height="30" as="geometry" />
        </mxCell>
        <mxCell id="W62d9GdkccvWjs98OXgP-70" value="НЕТ" style="text;html=1;align=center;verticalAlign=middle;resizable=0;points=[];autosize=1;strokeColor=none;fillColor=none;" vertex="1" parent="1">
          <mxGeometry x="210" y="1570" width="50" height="30" as="geometry" />
        </mxCell>
        <mxCell id="W62d9GdkccvWjs98OXgP-71" style="edgeStyle=orthogonalEdgeStyle;rounded=0;orthogonalLoop=1;jettySize=auto;html=1;exitX=0.5;exitY=1;exitDx=0;exitDy=0;entryX=0.5;entryY=0;entryDx=0;entryDy=0;" edge="1" parent="1" source="W62d9GdkccvWjs98OXgP-72" target="W62d9GdkccvWjs98OXgP-73">
          <mxGeometry relative="1" as="geometry" />
        </mxCell>
        <mxCell id="W62d9GdkccvWjs98OXgP-72" value="&lt;font face=&quot;Helvetica&quot;&gt;&lt;span style=&quot;box-sizing: border-box; color: var(--color-keyword); font-size: 14px; text-align: start; white-space-collapse: preserve;&quot; class=&quot;hljs-keyword&quot;&gt;for&lt;/span&gt;&lt;span style=&quot;font-size: 14px; text-align: start; white-space-collapse: preserve;&quot;&gt; col &lt;/span&gt;&lt;span style=&quot;box-sizing: border-box; color: var(--color-keyword); font-size: 14px; text-align: start; white-space-collapse: preserve;&quot; class=&quot;hljs-keyword&quot;&gt;in&lt;/span&gt;&lt;span style=&quot;font-size: 14px; text-align: start; white-space-collapse: preserve;&quot;&gt; &lt;/span&gt;&lt;span style=&quot;box-sizing: border-box; color: var(--color-type); font-size: 14px; text-align: start; white-space-collapse: preserve;&quot; class=&quot;hljs-built_in&quot;&gt;range&lt;/span&gt;&lt;span style=&quot;font-size: 14px; text-align: start; white-space-collapse: preserve;&quot;&gt;(array2.shape[&lt;/span&gt;&lt;span style=&quot;box-sizing: border-box; color: var(--color-class); font-size: 14px; text-align: start; white-space-collapse: preserve;&quot; class=&quot;hljs-number&quot;&gt;1&lt;/span&gt;&lt;span style=&quot;font-size: 14px; text-align: start; white-space-collapse: preserve;&quot;&gt;]):&lt;/span&gt;&lt;/font&gt;" style="rhombus;whiteSpace=wrap;html=1;" vertex="1" parent="1">
          <mxGeometry x="-230" y="2120" width="300" height="280" as="geometry" />
        </mxCell>
        <mxCell id="W62d9GdkccvWjs98OXgP-78" style="edgeStyle=orthogonalEdgeStyle;rounded=0;orthogonalLoop=1;jettySize=auto;html=1;exitX=0.5;exitY=1;exitDx=0;exitDy=0;entryX=0.5;entryY=0;entryDx=0;entryDy=0;" edge="1" parent="1" source="W62d9GdkccvWjs98OXgP-73" target="W62d9GdkccvWjs98OXgP-77">
          <mxGeometry relative="1" as="geometry" />
        </mxCell>
        <mxCell id="W62d9GdkccvWjs98OXgP-73" value="&lt;span style=&quot;font-size: 14px; text-align: start; white-space-collapse: preserve;&quot;&gt;&lt;font style=&quot;&quot; face=&quot;Helvetica&quot;&gt;column_data = array2[:, col]&lt;/font&gt;&lt;/span&gt;" style="rounded=0;whiteSpace=wrap;html=1;" vertex="1" parent="1">
          <mxGeometry x="-250" y="2460" width="340" height="160" as="geometry" />
        </mxCell>
        <mxCell id="W62d9GdkccvWjs98OXgP-81" style="edgeStyle=orthogonalEdgeStyle;rounded=0;orthogonalLoop=1;jettySize=auto;html=1;exitX=0;exitY=0.5;exitDx=0;exitDy=0;entryX=0.5;entryY=0;entryDx=0;entryDy=0;" edge="1" parent="1" source="W62d9GdkccvWjs98OXgP-77" target="W62d9GdkccvWjs98OXgP-80">
          <mxGeometry relative="1" as="geometry" />
        </mxCell>
        <mxCell id="W62d9GdkccvWjs98OXgP-77" value="&lt;span style=&quot;font-size: 14px; text-align: start; white-space-collapse: preserve;&quot;&gt; &lt;/span&gt;&lt;span style=&quot;box-sizing: border-box; color: var(--color-keyword); font-size: 14px; text-align: start; white-space-collapse: preserve;&quot; class=&quot;hljs-keyword&quot;&gt;if&lt;/span&gt;&lt;span style=&quot;font-size: 14px; text-align: start; white-space-collapse: preserve;&quot;&gt; &lt;/span&gt;&lt;span style=&quot;box-sizing: border-box; color: var(--color-type); font-size: 14px; text-align: start; white-space-collapse: preserve;&quot; class=&quot;hljs-built_in&quot;&gt;all&lt;/span&gt;&lt;span style=&quot;font-size: 14px; text-align: start; white-space-collapse: preserve;&quot;&gt;(value % &lt;/span&gt;&lt;span style=&quot;box-sizing: border-box; color: var(--color-class); font-size: 14px; text-align: start; white-space-collapse: preserve;&quot; class=&quot;hljs-number&quot;&gt;5&lt;/span&gt;&lt;span style=&quot;font-size: 14px; text-align: start; white-space-collapse: preserve;&quot;&gt; == &lt;/span&gt;&lt;span style=&quot;box-sizing: border-box; color: var(--color-class); font-size: 14px; text-align: start; white-space-collapse: preserve;&quot; class=&quot;hljs-number&quot;&gt;0&lt;/span&gt;&lt;span style=&quot;font-size: 14px; text-align: start; white-space-collapse: preserve;&quot;&gt; &lt;/span&gt;&lt;span style=&quot;box-sizing: border-box; color: var(--color-keyword); font-size: 14px; text-align: start; white-space-collapse: preserve;&quot; class=&quot;hljs-keyword&quot;&gt;or&lt;/span&gt;&lt;span style=&quot;font-size: 14px; text-align: start; white-space-collapse: preserve;&quot;&gt; value % &lt;/span&gt;&lt;span style=&quot;box-sizing: border-box; color: var(--color-class); font-size: 14px; text-align: start; white-space-collapse: preserve;&quot; class=&quot;hljs-number&quot;&gt;7&lt;/span&gt;&lt;span style=&quot;font-size: 14px; text-align: start; white-space-collapse: preserve;&quot;&gt; == &lt;/span&gt;&lt;span style=&quot;box-sizing: border-box; color: var(--color-class); font-size: 14px; text-align: start; white-space-collapse: preserve;&quot; class=&quot;hljs-number&quot;&gt;0&lt;/span&gt;&lt;span style=&quot;font-size: 14px; text-align: start; white-space-collapse: preserve;&quot;&gt; &lt;/span&gt;&lt;span style=&quot;box-sizing: border-box; color: var(--color-keyword); font-size: 14px; text-align: start; white-space-collapse: preserve;&quot; class=&quot;hljs-keyword&quot;&gt;for&lt;/span&gt;&lt;span style=&quot;font-size: 14px; text-align: start; white-space-collapse: preserve;&quot;&gt; value &lt;/span&gt;&lt;span style=&quot;box-sizing: border-box; color: var(--color-keyword); font-size: 14px; text-align: start; white-space-collapse: preserve;&quot; class=&quot;hljs-keyword&quot;&gt;in&lt;/span&gt;&lt;span style=&quot;font-size: 14px; text-align: start; white-space-collapse: preserve;&quot;&gt; column_data):&lt;/span&gt;" style="rhombus;whiteSpace=wrap;html=1;" vertex="1" parent="1">
          <mxGeometry x="-340" y="2730" width="520" height="150" as="geometry" />
        </mxCell>
        <mxCell id="W62d9GdkccvWjs98OXgP-83" style="edgeStyle=orthogonalEdgeStyle;rounded=0;orthogonalLoop=1;jettySize=auto;html=1;exitX=0;exitY=0.5;exitDx=0;exitDy=0;" edge="1" parent="1" source="W62d9GdkccvWjs98OXgP-80">
          <mxGeometry relative="1" as="geometry">
            <mxPoint x="-630" y="2440" as="targetPoint" />
          </mxGeometry>
        </mxCell>
        <mxCell id="W62d9GdkccvWjs98OXgP-94" style="edgeStyle=orthogonalEdgeStyle;rounded=0;orthogonalLoop=1;jettySize=auto;html=1;exitX=0.5;exitY=1;exitDx=0;exitDy=0;entryX=0.5;entryY=0;entryDx=0;entryDy=0;" edge="1" parent="1" source="W62d9GdkccvWjs98OXgP-80" target="W62d9GdkccvWjs98OXgP-91">
          <mxGeometry relative="1" as="geometry" />
        </mxCell>
        <mxCell id="W62d9GdkccvWjs98OXgP-80" value="&lt;span style=&quot;font-size: 14px; text-align: start; white-space-collapse: preserve;&quot;&gt;&lt;font style=&quot;&quot; face=&quot;Helvetica&quot;&gt; valid_columns2.append(col)&lt;/font&gt;&lt;/span&gt;" style="rounded=0;whiteSpace=wrap;html=1;" vertex="1" parent="1">
          <mxGeometry x="-610" y="2930" width="340" height="160" as="geometry" />
        </mxCell>
        <mxCell id="W62d9GdkccvWjs98OXgP-82" value="ДА" style="text;html=1;align=center;verticalAlign=middle;resizable=0;points=[];autosize=1;strokeColor=none;fillColor=none;" vertex="1" parent="1">
          <mxGeometry x="-422" y="2778" width="40" height="30" as="geometry" />
        </mxCell>
        <mxCell id="W62d9GdkccvWjs98OXgP-84" value="" style="endArrow=classic;html=1;rounded=0;" edge="1" parent="1">
          <mxGeometry width="50" height="50" relative="1" as="geometry">
            <mxPoint x="-630" y="2440" as="sourcePoint" />
            <mxPoint x="-80" y="2440" as="targetPoint" />
          </mxGeometry>
        </mxCell>
        <mxCell id="W62d9GdkccvWjs98OXgP-86" style="edgeStyle=orthogonalEdgeStyle;rounded=0;orthogonalLoop=1;jettySize=auto;html=1;exitX=0.5;exitY=1;exitDx=0;exitDy=0;" edge="1" parent="1" source="W62d9GdkccvWjs98OXgP-87">
          <mxGeometry relative="1" as="geometry">
            <mxPoint x="-460" y="3689.9999999999995" as="targetPoint" />
            <Array as="points">
              <mxPoint x="-112" y="3690" />
            </Array>
          </mxGeometry>
        </mxCell>
        <mxCell id="W62d9GdkccvWjs98OXgP-87" value="&lt;div&gt;&lt;font face=&quot;Helvetica&quot;&gt;&lt;span style=&quot;box-sizing: border-box; color: var(--color-type); font-size: 14px; text-align: start; white-space-collapse: preserve;&quot; class=&quot;hljs-built_in&quot;&gt;ВЫВОД&lt;/span&gt;&lt;/font&gt;&lt;/div&gt;&lt;font face=&quot;Helvetica&quot;&gt;&lt;span style=&quot;box-sizing: border-box; color: var(--color-type); font-size: 14px; text-align: start; white-space-collapse: preserve;&quot; class=&quot;hljs-built_in&quot;&gt;print&lt;/span&gt;&lt;span style=&quot;font-size: 14px; text-align: start; white-space-collapse: preserve;&quot;&gt;(&lt;/span&gt;&lt;span style=&quot;box-sizing: border-box; color: var(--color-string); font-size: 14px; text-align: start; white-space-collapse: preserve;&quot; class=&quot;hljs-string&quot;&gt;&quot;Во втором массиве нет столбцов с элементами, кратными 5 и 7.&quot;&lt;/span&gt;&lt;span style=&quot;font-size: 14px; text-align: start; white-space-collapse: preserve;&quot;&gt;)&lt;br&gt;&lt;/span&gt;&lt;/font&gt;&lt;div&gt;&lt;span style=&quot;font-family: &amp;quot;Cascadia Mono&amp;quot;, &amp;quot;Roboto Mono&amp;quot;, &amp;quot;Droid Sans Mono&amp;quot;, &amp;quot;SF Mono&amp;quot;, Menlo, &amp;quot;Ubuntu Mono&amp;quot;, Consolas, monospace; font-size: 14px; text-align: start; white-space-collapse: preserve; background-color: rgba(112, 117, 121, 0.08);&quot;&gt;&lt;br&gt;&lt;/span&gt;&lt;/div&gt;" style="shape=parallelogram;perimeter=parallelogramPerimeter;whiteSpace=wrap;html=1;fixedSize=1;" vertex="1" parent="1">
          <mxGeometry x="-310" y="3450" width="396" height="160" as="geometry" />
        </mxCell>
        <mxCell id="W62d9GdkccvWjs98OXgP-97" style="edgeStyle=orthogonalEdgeStyle;rounded=0;orthogonalLoop=1;jettySize=auto;html=1;exitX=0.5;exitY=1;exitDx=0;exitDy=0;entryX=0.5;entryY=0;entryDx=0;entryDy=0;" edge="1" parent="1" source="W62d9GdkccvWjs98OXgP-88" target="W62d9GdkccvWjs98OXgP-96">
          <mxGeometry relative="1" as="geometry" />
        </mxCell>
        <mxCell id="W62d9GdkccvWjs98OXgP-88" value="&lt;div&gt;&lt;font face=&quot;Helvetica&quot;&gt;&lt;span style=&quot;font-size: 14px; text-align: start; white-space-collapse: preserve;&quot;&gt;ВЫВОД&lt;/span&gt;&lt;/font&gt;&lt;/div&gt;&lt;div&gt;&lt;font face=&quot;Helvetica&quot;&gt;&lt;span style=&quot;font-size: 14px; text-align: start; white-space-collapse: preserve;&quot;&gt; &lt;/span&gt;&lt;span style=&quot;box-sizing: border-box; color: var(--color-type); font-size: 14px; text-align: start; white-space-collapse: preserve;&quot; class=&quot;hljs-built_in&quot;&gt;print&lt;/span&gt;&lt;span style=&quot;font-size: 14px; text-align: start; white-space-collapse: preserve;&quot;&gt;(&lt;/span&gt;&lt;span style=&quot;box-sizing: border-box; color: var(--color-string); font-size: 14px; text-align: start; white-space-collapse: preserve;&quot; class=&quot;hljs-string&quot;&gt;&quot;Во втором массиве номера столбцов с элементами, кратными 5 и 7:&quot;&lt;/span&gt;&lt;span style=&quot;font-size: 14px; text-align: start; white-space-collapse: preserve;&quot;&gt;, valid_columns2)&lt;/span&gt;&lt;/font&gt;&lt;span style=&quot;font-family: &amp;quot;Cascadia Mono&amp;quot;, &amp;quot;Roboto Mono&amp;quot;, &amp;quot;Droid Sans Mono&amp;quot;, &amp;quot;SF Mono&amp;quot;, Menlo, &amp;quot;Ubuntu Mono&amp;quot;, Consolas, monospace; font-size: 14px; text-align: start; white-space-collapse: preserve; background-color: rgba(112, 117, 121, 0.08);&quot;&gt;&lt;br&gt;&lt;/span&gt;&lt;/div&gt;" style="shape=parallelogram;perimeter=parallelogramPerimeter;whiteSpace=wrap;html=1;fixedSize=1;" vertex="1" parent="1">
          <mxGeometry x="-980" y="3450" width="396" height="160" as="geometry" />
        </mxCell>
        <mxCell id="W62d9GdkccvWjs98OXgP-89" style="edgeStyle=orthogonalEdgeStyle;rounded=0;orthogonalLoop=1;jettySize=auto;html=1;exitX=0;exitY=0.5;exitDx=0;exitDy=0;entryX=0.5;entryY=0;entryDx=0;entryDy=0;" edge="1" parent="1" source="W62d9GdkccvWjs98OXgP-91" target="W62d9GdkccvWjs98OXgP-88">
          <mxGeometry relative="1" as="geometry" />
        </mxCell>
        <mxCell id="W62d9GdkccvWjs98OXgP-90" style="edgeStyle=orthogonalEdgeStyle;rounded=0;orthogonalLoop=1;jettySize=auto;html=1;exitX=1;exitY=0.5;exitDx=0;exitDy=0;entryX=0.5;entryY=0;entryDx=0;entryDy=0;" edge="1" parent="1" source="W62d9GdkccvWjs98OXgP-91" target="W62d9GdkccvWjs98OXgP-87">
          <mxGeometry relative="1" as="geometry" />
        </mxCell>
        <mxCell id="W62d9GdkccvWjs98OXgP-91" value="&lt;font face=&quot;Helvetica&quot;&gt;&lt;span style=&quot;box-sizing: border-box; color: var(--color-keyword); font-size: 14px; text-align: start; white-space-collapse: preserve;&quot; class=&quot;hljs-keyword&quot;&gt;if&lt;/span&gt;&lt;span style=&quot;font-size: 14px; text-align: start; white-space-collapse: preserve;&quot;&gt; valid_columns2:&lt;/span&gt;&lt;/font&gt;" style="rhombus;whiteSpace=wrap;html=1;" vertex="1" parent="1">
          <mxGeometry x="-700" y="3170" width="520" height="150" as="geometry" />
        </mxCell>
        <mxCell id="W62d9GdkccvWjs98OXgP-92" value="ДА" style="text;html=1;align=center;verticalAlign=middle;resizable=0;points=[];autosize=1;strokeColor=none;fillColor=none;" vertex="1" parent="1">
          <mxGeometry x="-770" y="3220" width="40" height="30" as="geometry" />
        </mxCell>
        <mxCell id="W62d9GdkccvWjs98OXgP-93" value="НЕТ" style="text;html=1;align=center;verticalAlign=middle;resizable=0;points=[];autosize=1;strokeColor=none;fillColor=none;" vertex="1" parent="1">
          <mxGeometry x="-170" y="3220" width="50" height="30" as="geometry" />
        </mxCell>
        <mxCell id="W62d9GdkccvWjs98OXgP-96" value="Конец" style="ellipse;whiteSpace=wrap;html=1;" vertex="1" parent="1">
          <mxGeometry x="-520" y="3770" width="120" height="80" as="geometry" />
        </mxCell>
      </root>
    </mxGraphModel>
  </diagram>
</mxfile>
